<?xml version="1.0" encoding="UTF-8" standalone="no"?>
<!-- Generator: Adobe Illustrator 16.0.0, SVG Export Plug-In . SVG Version: 6.00 Build 0)  -->

<svg
   xmlns:dc="http://purl.org/dc/elements/1.1/"
   xmlns:cc="http://creativecommons.org/ns#"
   xmlns:rdf="http://www.w3.org/1999/02/22-rdf-syntax-ns#"
   xmlns:svg="http://www.w3.org/2000/svg"
   xmlns="http://www.w3.org/2000/svg"
   xmlns:sodipodi="http://sodipodi.sourceforge.net/DTD/sodipodi-0.dtd"
   xmlns:inkscape="http://www.inkscape.org/namespaces/inkscape"
   version="1.1"
   id="Layer_1"
   x="0px"
   y="0px"
   width="1100.595"
   height="267.56592"
   viewBox="0 0 1100.595 267.56591"
   enable-background="new 0 0 239 59"
   xml:space="preserve"
   inkscape:version="0.91 r13725"
   sodipodi:docname="ayy.svg"><metadata
     id="metadata3491"><rdf:RDF><cc:Work
         rdf:about=""><dc:format>image/svg+xml</dc:format><dc:type
           rdf:resource="http://purl.org/dc/dcmitype/StillImage" /><dc:title /></cc:Work></rdf:RDF></metadata><defs
     id="defs3489" /><sodipodi:namedview
     pagecolor="#004b80"
     bordercolor="#666666"
     borderopacity="1"
     objecttolerance="10"
     gridtolerance="10"
     guidetolerance="10"
     inkscape:pageopacity="0"
     inkscape:pageshadow="2"
     inkscape:window-width="1857"
     inkscape:window-height="1016"
     id="namedview3487"
     showgrid="false"
     inkscape:zoom="0.99409154"
     inkscape:cx="371.7605"
     inkscape:cy="80.614936"
     inkscape:window-x="63"
     inkscape:window-y="30"
     inkscape:window-maximized="1"
     inkscape:current-layer="Layer_1"
     fit-margin-top="0"
     fit-margin-left="0"
     fit-margin-right="0"
     fit-margin-bottom="0" /><g
     id="g3444"
     style="opacity:0.05"
     transform="matrix(4.6174981,0,0,4.6274292,0.22208046,-2.8273592)"><g
       id="I_16_"
       style=""><polygon
         points="142.641,12.989 131.639,55.778 120.49,55.778 131.693,12.989 "
         id="polygon3447"
         style="fill:#ffffff" /><path
         d="m 142.285,13.265 -10.859,42.237 -10.578,0 11.059,-42.237 10.378,0 m 0.711,-0.553 -0.711,0 -10.379,0 -0.426,0 -0.109,0.413 -11.059,42.237 -0.18,0.691 0.715,0 10.578,0 0.428,0 0.107,-0.414 10.857,-42.237 0.179,-0.69 0,0 z"
         id="path3449"
         style="fill:#ffffff"
         inkscape:connector-curvature="0" /></g><g
       id="L_16_"
       style=""><polygon
         points="157.434,23.901 149.104,55.778 137.949,55.778 146.279,23.901 "
         id="polygon3452"
         style="fill:#ffffff" /><path
         d="m 157.076,24.177 -8.186,31.325 -10.584,0 8.186,-31.325 10.584,0 m 0.715,-0.552 -0.715,0 -10.584,0 -0.426,0 -0.107,0.413 -8.188,31.325 -0.18,0.691 0.715,0 10.584,0 0.426,0 0.107,-0.412 8.186,-31.325 0.182,-0.692 0,0 z"
         id="path3454"
         style="fill:#ffffff"
         inkscape:connector-curvature="0" /></g><g
       id="N_32_"
       style=""><path
         d="m 180.557,55.778 4.736,-18.132 c 0.678,-2.627 1.021,-4.201 1.021,-4.681 0,-1.001 -0.355,-1.765 -1.092,-2.333 -0.746,-0.578 -1.812,-0.872 -3.166,-0.872 -1.494,0 -3.186,0.514 -5.029,1.53 -1.842,1.014 -3.309,2.371 -4.361,4.035 -0.768,1.19 -1.65,3.674 -2.621,7.386 l -3.41,13.066 -11.15,0 8.33,-31.877 10.596,0 -0.941,3.71 c 2.297,-1.527 4.477,-2.646 6.488,-3.328 2.197,-0.744 4.541,-1.12 6.967,-1.12 3.266,0 5.885,0.764 7.787,2.271 1.914,1.523 2.887,3.571 2.887,6.086 0,1.138 -0.402,3.206 -1.227,6.324 l -4.662,17.934 -11.153,0 z"
         id="path3457"
         style="fill:#ffffff"
         inkscape:connector-curvature="0" /><path
         d="m 186.924,23.438 c 3.219,0 5.756,0.738 7.615,2.212 1.855,1.476 2.781,3.431 2.781,5.87 0,1.102 -0.404,3.188 -1.215,6.254 l -4.609,17.728 -10.582,0 4.646,-17.786 c 0.686,-2.654 1.031,-4.238 1.031,-4.75 0,-1.081 -0.398,-1.932 -1.199,-2.551 -0.799,-0.619 -1.91,-0.93 -3.336,-0.93 -1.549,0 -3.27,0.521 -5.162,1.563 -1.892,1.042 -3.379,2.419 -4.461,4.13 -0.789,1.22 -1.672,3.706 -2.654,7.463 l -3.357,12.86 -10.58,0 8.186,-31.325 10.027,0 -1.031,4.069 c 2.508,-1.729 4.848,-2.964 7.023,-3.702 2.176,-0.735 4.469,-1.105 6.877,-1.105 m 0,-0.552 c -2.457,0 -4.83,0.382 -7.055,1.135 -1.859,0.631 -3.859,1.629 -5.959,2.972 l 0.68,-2.681 0.176,-0.688 -0.711,0 -10.027,0 -0.428,0 -0.107,0.413 -8.186,31.325 -0.18,0.691 0.715,0 10.58,0 0.426,0 0.107,-0.412 3.357,-12.86 c 0.963,-3.683 1.832,-6.14 2.584,-7.303 1.031,-1.629 2.465,-2.955 4.264,-3.946 1.803,-0.991 3.449,-1.495 4.896,-1.495 1.291,0 2.301,0.274 2.998,0.814 0.662,0.513 0.984,1.204 0.984,2.114 0,0.313 -0.176,1.368 -1.014,4.612 l -4.646,17.784 -0.18,0.691 0.715,0 10.582,0 0.426,0 0.107,-0.413 4.609,-17.728 c 0.83,-3.14 1.234,-5.231 1.234,-6.393 0,-2.604 -1.006,-4.724 -2.99,-6.302 -1.951,-1.545 -4.627,-2.33 -7.957,-2.33 l 0,0 z"
         id="path3459"
         style="fill:#ffffff"
         inkscape:connector-curvature="0" /></g><g
       id="E_16_"
       style=""><path
         d="m 218.025,56.516 c -5.301,0 -9.676,-1.365 -13.004,-4.058 -3.346,-2.706 -5.043,-6.337 -5.043,-10.791 0,-4.338 1.525,-8.249 4.531,-11.627 4.092,-4.564 10.004,-6.877 17.572,-6.877 4.836,0 8.742,1.217 11.607,3.618 2.879,2.415 4.34,5.835 4.34,10.167 0,2.06 -0.252,3.942 -0.75,5.596 l -0.059,0.197 -26.496,0 c -0.012,0.203 -0.018,0.366 -0.018,0.491 0,1.992 0.717,3.618 2.135,4.833 1.428,1.229 3.197,1.852 5.26,1.852 3.4,0 6.09,-1.428 7.994,-4.243 l 0.096,-0.142 10.062,1.346 -0.219,0.36 c -1.861,3.081 -4.387,5.424 -7.508,6.964 -3.111,1.535 -6.644,2.314 -10.5,2.314 z m 9.807,-19.491 c 0.016,-0.241 0.021,-0.435 0.021,-0.579 0,-2.224 -0.627,-3.911 -1.861,-5.017 -1.246,-1.107 -2.945,-1.668 -5.051,-1.668 -2.117,0 -4.039,0.646 -5.717,1.92 -1.594,1.212 -2.715,3.009 -3.334,5.344 l 15.942,0 z"
         id="path3462"
         style="fill:#ffffff"
         inkscape:connector-curvature="0" /><path
         d="m 222.082,23.438 c 4.795,0 8.604,1.186 11.432,3.554 2.826,2.371 4.238,5.688 4.238,9.955 0,2.046 -0.246,3.886 -0.736,5.517 l -26.547,0 c -0.027,0.335 -0.039,0.59 -0.039,0.768 0,2.085 0.744,3.767 2.232,5.043 1.486,1.279 3.301,1.918 5.439,1.918 3.512,0 6.254,-1.455 8.223,-4.365 l 9.475,1.268 c -1.842,3.049 -4.309,5.336 -7.393,6.859 -3.086,1.521 -6.545,2.285 -10.381,2.285 -5.26,0 -9.537,-1.332 -12.83,-3.996 -3.295,-2.665 -4.939,-6.189 -4.939,-10.576 0,-4.287 1.486,-8.102 4.461,-11.443 4.054,-4.525 9.844,-6.787 17.365,-6.787 m -10.545,13.864 16.555,0 c 0.025,-0.373 0.039,-0.658 0.039,-0.855 0,-2.32 -0.654,-4.059 -1.955,-5.223 -1.303,-1.158 -3.049,-1.738 -5.234,-1.738 -2.189,0 -4.15,0.659 -5.883,1.977 -1.733,1.315 -2.907,3.264 -3.522,5.839 m 10.545,-14.416 c -7.65,0 -13.631,2.345 -17.777,6.969 -3.053,3.431 -4.602,7.405 -4.602,11.812 0,4.542 1.73,8.244 5.145,11.006 3.379,2.732 7.812,4.118 13.178,4.118 3.898,0 7.473,-0.788 10.625,-2.342 3.168,-1.564 5.732,-3.942 7.621,-7.069 l 0.436,-0.721 -0.834,-0.111 -9.477,-1.268 -0.338,-0.046 -0.191,0.283 c -1.877,2.774 -4.416,4.123 -7.766,4.123 -1.996,0 -3.705,-0.601 -5.08,-1.784 -1.373,-1.178 -2.039,-2.69 -2.039,-4.625 0,-0.062 0.002,-0.134 0.004,-0.216 l 26.029,0 0.41,0 0.117,-0.393 c 0.506,-1.68 0.762,-3.589 0.762,-5.676 0,-4.417 -1.492,-7.908 -4.438,-10.378 -2.918,-2.443 -6.883,-3.682 -11.785,-3.682 l 0,0 z m -9.828,13.864 c 0.619,-2.106 1.672,-3.735 3.139,-4.849 1.627,-1.237 3.494,-1.864 5.549,-1.864 2.035,0 3.674,0.538 4.867,1.599 1.174,1.05 1.77,2.669 1.77,4.811 0,0.084 -0.002,0.186 -0.008,0.304 l -15.317,0 0,-10e-4 z"
         id="path3464"
         style="fill:#ffffff"
         inkscape:connector-curvature="0" /></g><path
       d="m 159.193,15.618 c 0,2.959 -2.576,5.357 -5.75,5.357 -3.18,0 -5.752,-2.398 -5.752,-5.357 0,-2.959 2.572,-5.359 5.752,-5.359 3.174,0 5.75,2.4 5.75,5.359 z"
       id="path3466"
       style="fill:#f9a11b;stroke:#ffffff;stroke-width:0.12095288"
       inkscape:connector-curvature="0" /><path
       d="M 0,58.39 C 19.63,39.213 35.583,30.698 45.363,26.337 c -1.777,3.476 -3.838,17.375 -3.838,17.375 0,0 30.709,-25.679 84.092,-29.541 -3.312,-0.295 -6.638,-0.431 -9.943,-0.431 -29.243,0 -57.129,10.601 -63.955,14.838 1.178,-8.623 5.083,-14.183 5.083,-14.183 0,0 -27.995,4.858 -56.802,43.995 z"
       id="path3468"
       style="clip-rule:evenodd;fill:#f9a11b;fill-rule:evenodd;stroke:#ffffff;stroke-width:0.11943854"
       inkscape:connector-curvature="0" /><g
       id="N_31_"
       style=""><path
         d="m 103.252,55.778 4.735,-18.132 c 0.846,-3.256 1.023,-4.343 1.023,-4.681 0,-1 -0.356,-1.763 -1.09,-2.333 -0.748,-0.578 -1.814,-0.872 -3.168,-0.872 -1.494,0 -3.186,0.514 -5.029,1.53 -1.842,1.013 -3.31,2.37 -4.363,4.035 -0.769,1.195 -1.65,3.679 -2.621,7.386 l -3.407,13.066 -11.154,0 8.331,-31.877 10.599,0 -0.943,3.709 c 2.296,-1.526 4.477,-2.645 6.49,-3.328 2.195,-0.744 4.539,-1.12 6.966,-1.12 3.268,0 5.887,0.764 7.785,2.271 1.917,1.524 2.887,3.572 2.887,6.086 0,1.135 -0.4,3.203 -1.225,6.324 l -4.662,17.934 -11.154,0 z"
         id="path3471"
         style="fill:#ffffff"
         inkscape:connector-curvature="0" /><path
         d="m 109.619,23.438 c 3.221,0 5.758,0.738 7.613,2.212 1.855,1.476 2.783,3.431 2.783,5.87 0,1.102 -0.406,3.188 -1.217,6.254 l -4.607,17.728 -10.582,0 4.645,-17.786 c 0.689,-2.654 1.032,-4.238 1.032,-4.75 0,-1.081 -0.399,-1.932 -1.196,-2.551 -0.801,-0.619 -1.914,-0.93 -3.338,-0.93 -1.548,0 -3.27,0.521 -5.162,1.563 -1.895,1.042 -3.381,2.419 -4.463,4.13 -0.785,1.22 -1.671,3.706 -2.654,7.463 l -3.354,12.86 -10.584,0 8.187,-31.325 10.03,0 -1.035,4.069 c 2.508,-1.729 4.85,-2.964 7.025,-3.702 2.175,-0.735 4.467,-1.105 6.877,-1.105 m 0,-0.552 c -2.457,0 -4.83,0.382 -7.054,1.135 -1.861,0.631 -3.861,1.629 -5.959,2.972 l 0.682,-2.68 0.175,-0.688 -0.71,0 -10.03,0 -0.426,0 -0.108,0.413 -8.187,31.325 -0.181,0.691 0.715,0 10.584,0 0.427,0 0.107,-0.412 3.354,-12.86 c 0.963,-3.678 1.832,-6.136 2.584,-7.304 1.03,-1.629 2.464,-2.954 4.265,-3.945 1.802,-0.991 3.449,-1.495 4.896,-1.495 1.292,0 2.301,0.274 3,0.814 0.661,0.514 0.982,1.205 0.982,2.114 0,0.264 -0.132,1.213 -1.014,4.611 l -4.645,17.785 -0.181,0.691 0.715,0 10.582,0 0.427,0 0.107,-0.413 4.607,-17.728 c 0.832,-3.142 1.234,-5.233 1.234,-6.393 0,-2.603 -1.005,-4.724 -2.99,-6.302 -1.949,-1.546 -4.626,-2.331 -7.958,-2.331 l 0,0 z"
         id="path3473"
         style="fill:#ffffff"
         inkscape:connector-curvature="0" /></g><g
       id="g3475"
       style=""><path
         d="m 44.246,56.68 c -5.793,0 -10.729,-1.152 -14.67,-3.424 -3.944,-2.274 -6.781,-5.138 -8.434,-8.512 -0.184,-0.375 -0.352,-0.751 -0.515,-1.125 l -0.087,-0.201 0.176,-0.131 c 3.571,-2.649 7.209,-5.111 10.813,-7.318 l 0.361,-0.222 0.056,0.42 c 0.373,2.777 1.604,5.181 3.661,7.146 2.526,2.413 5.901,3.637 10.033,3.637 3.368,0 6.652,-0.973 9.761,-2.891 3.109,-1.918 5.72,-4.87 7.759,-8.776 0.471,-0.903 0.896,-1.832 1.298,-2.84 l 0.04,-0.1 0.097,-0.047 c 4.625,-2.22 9.465,-4.261 14.383,-6.066 l 0.411,-0.151 -0.041,0.436 c -0.437,4.665 -1.947,9.242 -4.489,13.602 -3.081,5.288 -7.324,9.415 -12.612,12.267 -5.285,2.85 -11.341,4.296 -18.001,4.296 z"
         id="path3477"
         style="fill:#ffffff"
         inkscape:connector-curvature="0" /><path
         d="m 79.073,26.49 c -0.433,4.621 -1.905,9.119 -4.452,13.489 -3.07,5.27 -7.238,9.322 -12.505,12.162 -5.267,2.84 -11.224,4.262 -17.87,4.262 -5.773,0 -10.617,-1.13 -14.532,-3.387 -3.915,-2.258 -6.688,-5.056 -8.323,-8.394 -0.182,-0.371 -0.349,-0.743 -0.51,-1.114 3.58,-2.656 7.174,-5.089 10.793,-7.305 0.38,2.834 1.615,5.275 3.743,7.309 2.591,2.476 5.999,3.714 10.224,3.714 3.436,0 6.738,-0.978 9.906,-2.932 3.168,-1.954 5.787,-4.916 7.858,-8.884 0.501,-0.961 0.93,-1.914 1.31,-2.865 4.23,-2.029 9.029,-4.099 14.358,-6.055 m 0.632,-0.82 -0.822,0.301 c -4.926,1.809 -9.773,3.853 -14.407,6.076 l -0.194,0.094 -0.08,0.199 c -0.399,0.999 -0.82,1.92 -1.287,2.815 -2.015,3.86 -4.592,6.777 -7.659,8.669 -3.065,1.891 -6.3,2.85 -9.616,2.85 -4.058,0 -7.369,-1.198 -9.842,-3.562 -2.01,-1.921 -3.213,-4.27 -3.577,-6.982 l -0.113,-0.84 -0.723,0.442 c -3.612,2.211 -7.256,4.678 -10.834,7.332 l -0.351,0.262 0.175,0.402 c 0.165,0.379 0.335,0.759 0.52,1.138 1.677,3.423 4.551,6.326 8.543,8.629 3.983,2.296 8.966,3.46 14.808,3.46 6.706,0 12.806,-1.456 18.132,-4.327 5.333,-2.876 9.613,-7.038 12.72,-12.37 2.562,-4.396 4.084,-9.011 4.525,-13.716 l 0.082,-0.872 0,0 z"
         id="path3479"
         style="fill:#ffffff"
         inkscape:connector-curvature="0" /></g><g
       id="g3481"
       style=""><path
         d="m 18.687,33.698 c 0.087,-2.948 0.638,-6.056 1.639,-9.24 1.44,-4.699 3.668,-8.837 6.623,-12.297 2.957,-3.463 6.735,-6.238 11.229,-8.247 4.494,-2.009 9.677,-3.028 15.405,-3.028 7.693,0 14.001,2.093 18.749,6.221 2.923,2.543 4.978,5.644 6.106,9.218 l 0.088,0.278 -0.283,0.072 c -4.12,1.054 -8.186,2.258 -12.083,3.579 l -0.287,0.098 -0.07,-0.295 c -0.566,-2.386 -1.712,-4.381 -3.406,-5.928 -2.555,-2.332 -5.862,-3.515 -9.828,-3.515 -6.105,0 -11.142,2.488 -14.97,7.395 -0.903,1.159 -1.727,2.393 -2.446,3.667 l -0.034,0.061 -0.06,0.037 c -5.38,3.374 -10.733,7.457 -15.911,12.136 l -0.48,0.434 0.019,-0.646 z"
         id="path3483"
         style="fill:#ffffff"
         inkscape:connector-curvature="0" /><path
         d="m 53.582,1.163 c 7.661,0 13.85,2.051 18.567,6.153 2.903,2.525 4.908,5.559 6.024,9.093 -4.428,1.133 -8.498,2.363 -12.104,3.585 -0.576,-2.429 -1.727,-4.459 -3.488,-6.068 -2.62,-2.392 -5.958,-3.587 -10.014,-3.587 -6.225,0 -11.287,2.501 -15.188,7.501 -0.939,1.205 -1.757,2.44 -2.469,3.701 -4.821,3.023 -10.219,6.986 -15.949,12.165 0.086,-2.912 0.621,-5.967 1.626,-9.165 1.437,-4.687 3.626,-8.753 6.569,-12.2 2.942,-3.446 6.653,-6.172 11.132,-8.174 4.48,-2.002 9.577,-3.004 15.294,-3.004 m 0,-0.552 c -5.767,0 -10.988,1.027 -15.518,3.052 -4.532,2.026 -8.343,4.825 -11.326,8.319 -2.979,3.488 -5.225,7.659 -6.677,12.397 -1.007,3.204 -1.562,6.337 -1.65,9.31 l -0.038,1.294 0.96,-0.868 c 5.166,-4.667 10.506,-8.741 15.873,-12.106 l 0.119,-0.074 0.069,-0.122 c 0.713,-1.263 1.528,-2.485 2.423,-3.633 3.772,-4.836 8.736,-7.288 14.752,-7.288 3.895,0 7.139,1.158 9.642,3.442 1.652,1.509 2.77,3.457 3.323,5.788 l 0.14,0.59 0.575,-0.195 c 3.891,-1.318 7.95,-2.521 12.063,-3.573 L 78.877,16.799 78.7,16.243 C 77.556,12.62 75.474,9.477 72.512,6.9 67.713,2.727 61.344,0.611 53.582,0.611 l 0,0 z"
         id="path3485"
         style="fill:#ffffff"
         inkscape:connector-curvature="0" /></g></g></svg>